<mxfile host="app.diagrams.net" modified="2023-09-18T12:22:07.648Z" agent="Mozilla/5.0 (Windows NT 10.0; Win64; x64) AppleWebKit/537.36 (KHTML, like Gecko) Chrome/117.0.0.0 Safari/537.36" etag="z-KEjFhezE0mYjbIZaqL" version="21.7.5" type="google">
  <diagram name="Page-1" id="fuXdf31PwUrMaEPNrdIZ">
    <mxGraphModel grid="1" page="1" gridSize="10" guides="1" tooltips="1" connect="1" arrows="1" fold="1" pageScale="1" pageWidth="850" pageHeight="1100" math="0" shadow="0">
      <root>
        <mxCell id="0" />
        <mxCell id="1" parent="0" />
        <mxCell id="0f4bXaxpqCLOSyks3eZV-10" value="" style="edgeStyle=orthogonalEdgeStyle;rounded=0;orthogonalLoop=1;jettySize=auto;html=1;" edge="1" parent="1" source="0f4bXaxpqCLOSyks3eZV-2" target="0f4bXaxpqCLOSyks3eZV-3">
          <mxGeometry relative="1" as="geometry" />
        </mxCell>
        <mxCell id="0f4bXaxpqCLOSyks3eZV-2" value="&lt;b&gt;Pre-processing&lt;/b&gt;" style="rounded=1;whiteSpace=wrap;html=1;fillColor=#e1d5e7;strokeColor=#9673a6;" vertex="1" parent="1">
          <mxGeometry x="100" y="240" width="150" height="40" as="geometry" />
        </mxCell>
        <mxCell id="0f4bXaxpqCLOSyks3eZV-11" value="" style="edgeStyle=orthogonalEdgeStyle;rounded=0;orthogonalLoop=1;jettySize=auto;html=1;" edge="1" parent="1" source="0f4bXaxpqCLOSyks3eZV-3" target="0f4bXaxpqCLOSyks3eZV-4">
          <mxGeometry relative="1" as="geometry" />
        </mxCell>
        <mxCell id="0f4bXaxpqCLOSyks3eZV-3" value="&lt;b&gt;Data Split&lt;/b&gt;" style="rounded=1;whiteSpace=wrap;html=1;fillColor=#e1d5e7;strokeColor=#9673a6;" vertex="1" parent="1">
          <mxGeometry x="280" y="240" width="150" height="40" as="geometry" />
        </mxCell>
        <mxCell id="0f4bXaxpqCLOSyks3eZV-7" value="" style="edgeStyle=orthogonalEdgeStyle;rounded=0;orthogonalLoop=1;jettySize=auto;html=1;" edge="1" parent="1" source="0f4bXaxpqCLOSyks3eZV-4" target="0f4bXaxpqCLOSyks3eZV-6">
          <mxGeometry relative="1" as="geometry" />
        </mxCell>
        <mxCell id="0f4bXaxpqCLOSyks3eZV-12" value="" style="edgeStyle=orthogonalEdgeStyle;rounded=0;orthogonalLoop=1;jettySize=auto;html=1;" edge="1" parent="1" source="0f4bXaxpqCLOSyks3eZV-4" target="0f4bXaxpqCLOSyks3eZV-5">
          <mxGeometry relative="1" as="geometry" />
        </mxCell>
        <mxCell id="0f4bXaxpqCLOSyks3eZV-4" value="&lt;b&gt;Classification Models&lt;/b&gt;" style="rounded=1;whiteSpace=wrap;html=1;fillColor=#e1d5e7;strokeColor=#9673a6;" vertex="1" parent="1">
          <mxGeometry x="460" y="240" width="150" height="40" as="geometry" />
        </mxCell>
        <mxCell id="0f4bXaxpqCLOSyks3eZV-9" value="" style="edgeStyle=orthogonalEdgeStyle;rounded=0;orthogonalLoop=1;jettySize=auto;html=1;" edge="1" parent="1" source="0f4bXaxpqCLOSyks3eZV-5" target="0f4bXaxpqCLOSyks3eZV-8">
          <mxGeometry relative="1" as="geometry" />
        </mxCell>
        <mxCell id="0f4bXaxpqCLOSyks3eZV-5" value="&lt;b&gt;Implementation of Explainabale AI&lt;/b&gt;" style="rounded=1;whiteSpace=wrap;html=1;fillColor=#e1d5e7;strokeColor=#9673a6;" vertex="1" parent="1">
          <mxGeometry x="640" y="240" width="150" height="40" as="geometry" />
        </mxCell>
        <mxCell id="0f4bXaxpqCLOSyks3eZV-6" value="&lt;ol style=&quot;line-height: 170%;&quot;&gt;&lt;li&gt;&lt;b&gt;Logistic regression&lt;/b&gt;&lt;/li&gt;&lt;li&gt;&lt;b&gt;NaÃ¯ve Bayes&lt;br&gt;&lt;/b&gt;&lt;/li&gt;&lt;li&gt;&lt;b&gt;SVM&lt;/b&gt;&lt;/li&gt;&lt;li&gt;&lt;b&gt;Random Forest&lt;br&gt;&lt;/b&gt;&lt;/li&gt;&lt;li&gt;&lt;b&gt;Gradient Boosting&lt;br&gt;&lt;/b&gt;&lt;/li&gt;&lt;li&gt;&lt;b&gt;CNN&lt;/b&gt;&lt;/li&gt;&lt;li&gt;&lt;b&gt;RNN&lt;/b&gt;&lt;/li&gt;&lt;li&gt;&lt;b&gt;Bi LSTM&lt;/b&gt;&lt;/li&gt;&lt;/ol&gt;" style="rounded=1;whiteSpace=wrap;html=1;align=left;fillColor=#d5e8d4;strokeColor=#82b366;" vertex="1" parent="1">
          <mxGeometry x="442.5" y="310" width="185" height="170" as="geometry" />
        </mxCell>
        <mxCell id="0f4bXaxpqCLOSyks3eZV-8" value="&lt;div style=&quot;text-align: center;&quot;&gt;&lt;b style=&quot;background-color: initial;&quot;&gt;&amp;nbsp; &amp;nbsp; &amp;nbsp; &amp;nbsp; &amp;nbsp;LIME XAI&lt;/b&gt;&lt;/div&gt;" style="rounded=1;whiteSpace=wrap;html=1;align=left;fillColor=#d5e8d4;strokeColor=#82b366;" vertex="1" parent="1">
          <mxGeometry x="655" y="310" width="120" height="60" as="geometry" />
        </mxCell>
        <mxCell id="86xMFTXNP7u4nG1RgK4N-2" value="" style="edgeStyle=orthogonalEdgeStyle;rounded=0;orthogonalLoop=1;jettySize=auto;html=1;" edge="1" parent="1" source="86xMFTXNP7u4nG1RgK4N-1" target="0f4bXaxpqCLOSyks3eZV-2">
          <mxGeometry relative="1" as="geometry" />
        </mxCell>
        <mxCell id="86xMFTXNP7u4nG1RgK4N-1" value="&lt;b&gt;&lt;br&gt;&lt;br&gt;&lt;/b&gt;" style="shape=cylinder3;whiteSpace=wrap;html=1;boundedLbl=1;backgroundOutline=1;size=15;fillColor=#f8cecc;strokeColor=#b85450;" vertex="1" parent="1">
          <mxGeometry x="102.5" y="120" width="145" height="90" as="geometry" />
        </mxCell>
        <mxCell id="86xMFTXNP7u4nG1RgK4N-3" value="&lt;b&gt;&lt;font style=&quot;font-size: 14px;&quot;&gt;Dataset&lt;/font&gt;&lt;/b&gt;" style="text;html=1;align=center;verticalAlign=middle;resizable=0;points=[];autosize=1;strokeColor=none;fillColor=none;" vertex="1" parent="1">
          <mxGeometry x="135" y="160" width="70" height="30" as="geometry" />
        </mxCell>
      </root>
    </mxGraphModel>
  </diagram>
</mxfile>
